<?xml version="1.0" standalone="no"?>
 <!DOCTYPE svg PUBLIC "-//W3C//DTD SVG 1.1//EN" 
 "http://www.w3.org/Graphics/SVG/1.1/DTD/svg11.dtd"> 
<svg xmlns="http://www.w3.org/2000/svg" version="1.1" 
    width="29.7002cm" height="21.0007cm" viewBox="0 0 116930 82680 ">
<title>SVG Picture created as MainModule-B_Cu.svg date 2014/10/05 18:10:58 </title>
  <desc>Picture generated by PCBNEW </desc>
<g style="fill:#000000; fill-opacity:1;stroke:#000000; stroke-opacity:1;
stroke-linecap:round; stroke-linejoin:round; "
 transform="translate(0 0) scale(1 1)">
</g>
<g style="fill:#000000; fill-opacity:0.0; 
stroke:#000000; stroke-width:39.3701; stroke-opacity:1; 
stroke-linecap:round; stroke-linejoin:round;">
<path d="M23622 35433
L31496 13779
" />
<path d="M62992 35433
L62992 35433
" />
<path d="M55118 13779
L62992 35433
" />
<path d="M23622 53149
L23622 53149
" />
<path d="M23622 53149
L62992 53149
" />
<path d="M62992 53149
L62992 35433
" />
<path d="M55118 13779
L31496 13779
" />
<path d="M23622 35433
L23622 53149
" />
</g>
<g style="fill:#000000; fill-opacity:1.0; 
stroke:#000000; stroke-width:39.3701; stroke-opacity:1; 
stroke-linecap:round; stroke-linejoin:round;">
<polyline style="fill-rule:evenodd;"
points="29282,51425
29282,51936
28772,51936
28772,51425
29282,51425
" /> 
<circle cx="30027.6" cy="51681.1" r="255.315" /> 
<circle cx="30027.6" cy="50681.1" r="255.315" /> 
<circle cx="26484.3" cy="50425.2" r="276.815" /> 
<circle cx="25484.3" cy="50425.2" r="276.815" /> 
<circle cx="26484.3" cy="49425.2" r="276.815" /> 
<circle cx="25484.3" cy="49425.2" r="276.815" /> 
<circle cx="26484.3" cy="48425.2" r="276.815" /> 
<circle cx="25484.3" cy="48425.2" r="276.815" /> 
<circle cx="26484.3" cy="47425.2" r="276.815" /> 
<circle cx="25484.3" cy="47425.2" r="276.815" /> 
<circle cx="26484.3" cy="46425.2" r="276.815" /> 
<circle cx="25484.3" cy="46425.2" r="276.815" /> 
<polyline style="fill-rule:evenodd;"
points="58129,42803
59468,42803
59468,43472
58129,43472
58129,42803
" /> 
<circle cx="56299.2" cy="48637.8" r="275.591" /> 
<circle cx="56299.2" cy="50637.8" r="275.591" /> 
<circle cx="56299.2" cy="46637.8" r="275.591" /> 
<circle cx="56299.2" cy="44637.8" r="275.591" /> 
<polyline style="fill-rule:evenodd;"
points="58129,51803
59468,51803
59468,52472
58129,52472
58129,51803
" /> 
<circle cx="56192.9" cy="42126" r="275.815" /> 
<circle cx="57192.9" cy="42126" r="275.815" /> 
<polyline style="fill-rule:evenodd;"
points="35582,47488
35582,47999
35071,47999
35071,47488
35582,47488
" /> 
<circle cx="36326.8" cy="47744.1" r="255.315" /> 
<circle cx="36326.8" cy="46744.1" r="255.315" /> 
</g>
<g style="fill:#000000; fill-opacity:1.0; 
stroke:#000000; stroke-width:196.85; stroke-opacity:1; 
stroke-linecap:round; stroke-linejoin:round;">
</g>
<g style="fill:#000000; fill-opacity:0.0; 
stroke:#000000; stroke-width:196.85; stroke-opacity:1; 
stroke-linecap:round; stroke-linejoin:round;">
<path d="M56299 46637
L56299 48637
" />
<path d="M56299 46637
L55511 45850
" />
<path d="M55511 42807
L56192 42125
" />
<path d="M55511 45850
L55511 42807
" />
<path d="M56299 43019
L57192 42125
" />
<path d="M56299 44637
L56299 43019
" />
</g>
<g style="fill:#000000; fill-opacity:0.0; 
stroke:#000000; stroke-width:100; stroke-opacity:1; 
stroke-linecap:round; stroke-linejoin:round;">
<path d="M27740 51681
L29027 51681
" />
<path d="M26484 50425
L27740 51681
" />
<path d="M35326 47744
L28165 47744
" />
<path d="M28165 47744
L26484 49425
" />
</g>
<g style="fill:#000000; fill-opacity:1.0; 
stroke:#000000; stroke-width:100; stroke-opacity:1; 
stroke-linecap:round; stroke-linejoin:round;">
<polyline style="fill-rule:evenodd;"
points="62722,52879
61076,52879
61076,37235
60949,36926
60712,36689
60404,36561
60069,36560
59760,36688
59524,36924
59395,37233
59395,37568
59523,37877
59759,38113
60068,38241
60402,38242
60711,38114
60948,37878
61076,37569
61076,37235
61076,52879
59738,52879
59738,52541
59738,52442
59738,51733
59738,43541
59738,43442
59738,42733
59700,42641
59629,42571
59537,42533
59438,42533
58060,42533
57968,42571
57898,42641
57860,42733
57860,42833
57860,43541
57898,43633
57968,43704
58060,43742
58159,43742
59537,43742
59629,43704
59700,43633
59738,43541
59738,51733
59700,51641
59629,51571
59537,51533
59438,51533
58060,51533
57968,51571
57898,51641
57860,51733
57860,51833
57860,52541
57898,52633
57968,52704
58060,52742
58159,52742
59537,52742
59629,52704
59700,52633
59738,52541
59738,52879
57738,52879
57738,42017
57655,41817
57502,41663
57301,41580
57084,41580
56884,41663
56730,41816
56695,41901
56670,41840
56575,41814
56504,41884
56504,41743
56478,41648
56273,41575
56056,41586
55907,41648
55880,41743
56192,42055
56504,41743
56504,41884
56263,42125
56269,42131
56198,42202
56192,42196
56122,42267
56122,42125
55810,41814
55715,41840
55642,42045
55653,42262
55715,42411
55810,42437
56122,42125
56122,42267
55880,42508
55907,42603
56112,42676
56151,42674
56052,42773
55977,42886
55972,42908
55950,43019
55950,43019
55950,44215
55837,44328
55754,44528
55753,44745
55836,44946
55989,45099
56190,45182
56407,45183
56607,45100
56761,44947
56844,44746
56844,44529
56761,44329
56647,44215
56647,43164
57140,42671
57300,42671
57501,42588
57655,42435
57738,42234
57738,42017
57738,52879
56849,52879
56849,48718
56849,46718
56838,46501
56776,46352
56681,46326
56610,46396
56610,46255
56584,46160
56379,46087
56163,46098
56014,46160
55987,46255
56299,46567
56610,46255
56610,46396
56369,46637
56681,46949
56776,46922
56849,46718
56849,48718
56838,48501
56776,48352
56681,48326
56610,48396
56610,48255
56610,47020
56299,46708
56228,46779
56228,46637
55916,46326
55821,46352
55749,46557
55760,46773
55821,46922
55916,46949
56228,46637
56228,46779
55987,47020
56014,47115
56218,47187
56435,47176
56584,47115
56610,47020
56610,48255
56584,48160
56379,48087
56163,48098
56014,48160
55987,48255
56299,48567
56610,48255
56610,48396
56369,48637
56681,48949
56776,48922
56849,48718
56849,52879
56844,52879
56844,50529
56761,50329
56610,50178
56610,49020
56299,48708
56228,48779
56228,48637
55916,48326
55821,48352
55749,48557
55760,48773
55821,48922
55916,48949
56228,48637
56228,48779
55987,49020
56014,49115
56218,49187
56435,49176
56584,49115
56610,49020
56610,50178
56608,50175
56408,50092
56191,50092
55990,50175
55837,50328
55754,50528
55753,50745
55836,50946
55989,51099
56190,51182
56407,51183
56607,51100
56761,50947
56844,50746
56844,50529
56844,52879
44147,52879
44147,17550
44020,17241
43783,17004
43475,16876
43140,16875
42831,17003
42594,17239
42466,17548
42466,17882
42594,18192
42830,18428
43139,18556
43473,18557
43782,18429
44019,18193
44147,17884
44147,17550
44147,52879
36851,52879
36851,47640
36772,47447
36624,47299
36491,47244
36623,47189
36771,47041
36851,46848
36851,46640
36772,46447
36624,46299
36431,46219
36222,46219
36029,46298
35881,46446
35801,46639
35801,46848
35881,47041
36028,47188
36161,47244
36029,47298
35881,47446
35851,47519
35851,47419
35813,47327
35743,47257
35651,47219
35552,47219
35002,47219
34910,47257
34839,47327
34801,47419
34801,47444
28165,47444
28050,47466
27953,47531
27218,48266
27218,37235
27090,36926
26854,36689
26545,36561
26211,36560
25902,36688
25665,36924
25537,37233
25537,37568
25664,37877
25901,38113
26210,38241
26544,38242
26853,38114
27090,37878
27218,37569
27218,37235
27218,48266
27030,48454
27030,48316
26947,48116
26794,47962
26705,47925
26793,47888
26947,47735
27030,47534
27030,47316
26947,47116
26794,46962
26705,46925
26793,46888
26947,46735
27030,46534
27030,46316
26947,46116
26794,45962
26593,45878
26376,45878
26175,45961
26021,46115
25984,46204
25947,46116
25794,45962
25593,45878
25376,45878
25175,45961
25021,46115
24937,46316
24937,46533
25020,46734
25174,46888
25263,46925
25175,46961
25021,47115
24937,47316
24937,47533
25020,47734
25174,47888
25263,47925
25175,47961
25021,48115
24937,48316
24937,48533
25020,48734
25174,48888
25263,48925
25175,48961
25021,49115
24937,49316
24937,49533
25020,49734
25174,49888
25263,49925
25175,49961
25021,50115
24937,50316
24937,50533
25020,50734
25174,50888
25375,50971
25592,50971
25793,50888
25947,50735
25984,50646
26020,50734
26174,50888
26375,50971
26592,50971
26602,50967
27528,51893
27528,51893
27625,51958
27740,51981
28502,51981
28502,52005
28540,52097
28610,52168
28702,52206
28802,52206
29352,52206
29444,52168
29514,52097
29552,52005
29552,51906
29552,51906
29582,51978
29729,52125
29922,52206
30131,52206
30324,52126
30472,51978
30552,51785
30552,51577
30472,51384
30325,51236
30192,51181
30324,51126
30472,50978
30552,50785
30552,50577
30472,50384
30325,50236
30132,50156
29923,50156
29730,50235
29582,50383
29502,50576
29502,50785
29582,50978
29729,51125
29862,51181
29730,51235
29582,51383
29552,51456
29552,51356
29514,51264
29444,51194
29352,51156
29252,51156
28702,51156
28610,51194
28540,51264
28502,51356
28502,51381
27864,51381
27026,50543
27030,50534
27030,50316
26947,50116
26794,49962
26705,49925
26793,49888
26947,49735
27030,49534
27030,49316
27026,49306
28289,48044
34801,48044
34801,48068
34839,48160
34910,48231
35002,48269
35101,48269
35651,48269
35743,48231
35813,48160
35851,48068
35851,47969
35851,47969
35881,48041
36028,48188
36221,48269
36430,48269
36623,48189
36771,48041
36851,47848
36851,47640
36851,52879
23891,52879
23891,35480
31684,14049
54929,14049
62722,35480
62722,52879
" /> 
</g>
<g style="fill:#FFFFFF; fill-opacity:1.0; 
stroke:#FFFFFF; stroke-width:39.3701; stroke-opacity:1; 
stroke-linecap:round; stroke-linejoin:round;">
<circle cx="29027.6" cy="51681.1" r="140.315" /> 
<circle cx="30027.6" cy="51681.1" r="140.315" /> 
<circle cx="30027.6" cy="50681.1" r="140.315" /> 
<circle cx="26484.3" cy="50425.2" r="176.815" /> 
<circle cx="25484.3" cy="50425.2" r="176.815" /> 
<circle cx="26484.3" cy="49425.2" r="176.815" /> 
<circle cx="25484.3" cy="49425.2" r="176.815" /> 
<circle cx="26484.3" cy="48425.2" r="176.815" /> 
<circle cx="25484.3" cy="48425.2" r="176.815" /> 
<circle cx="26484.3" cy="47425.2" r="176.815" /> 
<circle cx="25484.3" cy="47425.2" r="176.815" /> 
<circle cx="26484.3" cy="46425.2" r="176.815" /> 
<circle cx="25484.3" cy="46425.2" r="176.815" /> 
</g>
<g style="fill:#FFFFFF; fill-opacity:1.0; 
stroke:#FFFFFF; stroke-width:314.961; stroke-opacity:1; 
stroke-linecap:round; stroke-linejoin:round;">
</g>
<g style="fill:#FFFFFF; fill-opacity:0.0; 
stroke:#FFFFFF; stroke-width:314.961; stroke-opacity:1; 
stroke-linecap:round; stroke-linejoin:round;">
<path d="M59133 43137
L58464 43137
" />
</g>
<g style="fill:#FFFFFF; fill-opacity:0.0; 
stroke:#FFFFFF; stroke-width:39.3701; stroke-opacity:1; 
stroke-linecap:round; stroke-linejoin:round;">
</g>
<g style="fill:#FFFFFF; fill-opacity:1.0; 
stroke:#FFFFFF; stroke-width:39.3701; stroke-opacity:1; 
stroke-linecap:round; stroke-linejoin:round;">
<circle cx="56299.2" cy="48637.8" r="137.795" /> 
<circle cx="56299.2" cy="50637.8" r="137.795" /> 
<circle cx="56299.2" cy="46637.8" r="137.795" /> 
<circle cx="56299.2" cy="44637.8" r="137.795" /> 
</g>
<g style="fill:#FFFFFF; fill-opacity:1.0; 
stroke:#FFFFFF; stroke-width:314.961; stroke-opacity:1; 
stroke-linecap:round; stroke-linejoin:round;">
</g>
<g style="fill:#FFFFFF; fill-opacity:0.0; 
stroke:#FFFFFF; stroke-width:314.961; stroke-opacity:1; 
stroke-linecap:round; stroke-linejoin:round;">
<path d="M59133 52137
L58464 52137
" />
</g>
<g style="fill:#FFFFFF; fill-opacity:0.0; 
stroke:#FFFFFF; stroke-width:39.3701; stroke-opacity:1; 
stroke-linecap:round; stroke-linejoin:round;">
</g>
<g style="fill:#FFFFFF; fill-opacity:1.0; 
stroke:#FFFFFF; stroke-width:39.3701; stroke-opacity:1; 
stroke-linecap:round; stroke-linejoin:round;">
<circle cx="56192.9" cy="42126" r="137.815" /> 
<circle cx="57192.9" cy="42126" r="137.815" /> 
<circle cx="35326.8" cy="47744.1" r="140.315" /> 
<circle cx="36326.8" cy="47744.1" r="140.315" /> 
<circle cx="36326.8" cy="46744.1" r="140.315" /> 
<circle cx="60236.2" cy="37401.6" r="570.815" /> 
<circle cx="26378" cy="37401.6" r="570.815" /> 
<circle cx="43307.1" cy="17716.5" r="570.815" /> 
</g> 
</svg>
