<?xml version="1.0" standalone="no"?>
 <!DOCTYPE svg PUBLIC "-//W3C//DTD SVG 1.1//EN" 
 "http://www.w3.org/Graphics/SVG/1.1/DTD/svg11.dtd"> 
<svg xmlns="http://www.w3.org/2000/svg" version="1.1" 
    width="29.7002cm" height="21.0007cm" viewBox="0 0 116930 82680 ">
<title>SVG Picture created as MainModule-F_Cu.svg date 2014/10/05 18:10:53 </title>
  <desc>Picture generated by PCBNEW </desc>
<g style="fill:#000000; fill-opacity:1;stroke:#000000; stroke-opacity:1;
stroke-linecap:round; stroke-linejoin:round; "
 transform="translate(0 0) scale(1 1)">
</g>
<g style="fill:#000000; fill-opacity:0.0; 
stroke:#000000; stroke-width:39.3701; stroke-opacity:1; 
stroke-linecap:round; stroke-linejoin:round;">
<path d="M93307 35433
L85433 13779
" />
<path d="M53937 35433
L53937 35433
" />
<path d="M61811 13779
L53937 35433
" />
<path d="M93307 53149
L93307 53149
" />
<path d="M93307 53149
L53937 53149
" />
<path d="M53937 53149
L53937 35433
" />
<path d="M61811 13779
L85433 13779
" />
<path d="M93307 35433
L93307 53149
" />
</g>
<g style="fill:#000000; fill-opacity:0.0; 
stroke:#000000; stroke-width:150; stroke-opacity:1; 
stroke-linecap:round; stroke-linejoin:round;">
<path d="M59817 42725
L60237 42725
" />
<path d="M60037 42925
L60037 42515
" />
</g>
<g style="fill:#000000; fill-opacity:0.0; 
stroke:#000000; stroke-width:39.3701; stroke-opacity:1; 
stroke-linecap:round; stroke-linejoin:round;">
</g>
<g style="fill:#000000; fill-opacity:1.0; 
stroke:#000000; stroke-width:39.3701; stroke-opacity:1; 
stroke-linecap:round; stroke-linejoin:round;">
<polyline style="fill-rule:evenodd;"
points="87647,51425
87647,51936
88157,51936
88157,51425
87647,51425
" /> 
<circle cx="86902.4" cy="51681.1" r="255.315" /> 
<circle cx="86902.4" cy="50681.1" r="255.315" /> 
<circle cx="90445.7" cy="50425.2" r="276.815" /> 
<circle cx="91445.7" cy="50425.2" r="276.815" /> 
<circle cx="90445.7" cy="49425.2" r="276.815" /> 
<circle cx="91445.7" cy="49425.2" r="276.815" /> 
<circle cx="90445.7" cy="48425.2" r="276.815" /> 
<circle cx="91445.7" cy="48425.2" r="276.815" /> 
<circle cx="90445.7" cy="47425.2" r="276.815" /> 
<circle cx="91445.7" cy="47425.2" r="276.815" /> 
<circle cx="90445.7" cy="46425.2" r="276.815" /> 
<circle cx="91445.7" cy="46425.2" r="276.815" /> 
<polyline style="fill-rule:evenodd;"
points="58800,42803
57461,42803
57461,43472
58800,43472
58800,42803
" /> 
<circle cx="60630.8" cy="48637.8" r="275.591" /> 
<circle cx="60630.8" cy="50637.8" r="275.591" /> 
<circle cx="60630.8" cy="46637.8" r="275.591" /> 
<circle cx="60630.8" cy="44637.8" r="275.591" /> 
<polyline style="fill-rule:evenodd;"
points="58800,51803
57461,51803
57461,52472
58800,52472
58800,51803
" /> 
<polyline style="fill-rule:evenodd;"
points="83091,49822
83091,50177
83839,50177
83839,49822
83091,49822
" /> 
<polyline style="fill-rule:evenodd;"
points="84666,49822
84666,50177
85414,50177
85414,49822
84666,49822
" /> 
<polyline style="fill-rule:evenodd;"
points="83091,49035
83091,49389
83839,49389
83839,49035
83091,49035
" /> 
<polyline style="fill-rule:evenodd;"
points="84666,49035
84666,49389
85414,49389
85414,49035
84666,49035
" /> 
<polyline style="fill-rule:evenodd;"
points="83091,48248
83091,48602
83839,48602
83839,48248
83091,48248
" /> 
<polyline style="fill-rule:evenodd;"
points="84666,48248
84666,48602
85414,48602
85414,48248
84666,48248
" /> 
<polyline style="fill-rule:evenodd;"
points="83091,47460
83091,47814
83839,47814
83839,47460
83091,47460
" /> 
<polyline style="fill-rule:evenodd;"
points="84666,47460
84666,47814
85414,47814
85414,47460
84666,47460
" /> 
<polyline style="fill-rule:evenodd;"
points="83091,46673
83091,47027
83839,47027
83839,46673
83091,46673
" /> 
<polyline style="fill-rule:evenodd;"
points="84666,46673
84666,47027
85414,47027
85414,46673
84666,46673
" /> 
<polyline style="fill-rule:evenodd;"
points="83091,45885
83091,46240
83839,46240
83839,45885
83091,45885
" /> 
<polyline style="fill-rule:evenodd;"
points="84666,45885
84666,46240
85414,46240
85414,45885
84666,45885
" /> 
<polyline style="fill-rule:evenodd;"
points="83091,45098
83091,45452
83839,45452
83839,45098
83091,45098
" /> 
<polyline style="fill-rule:evenodd;"
points="84666,45098
84666,45452
85414,45452
85414,45098
84666,45098
" /> 
<polyline style="fill-rule:evenodd;"
points="83091,44311
83091,44665
83839,44665
83839,44311
83091,44311
" /> 
<polyline style="fill-rule:evenodd;"
points="84666,44311
84666,44665
85414,44665
85414,44311
84666,44311
" /> 
<polyline style="fill-rule:evenodd;"
points="83091,43523
83091,43877
83839,43877
83839,43523
83091,43523
" /> 
<polyline style="fill-rule:evenodd;"
points="84666,43523
84666,43877
85414,43877
85414,43523
84666,43523
" /> 
<polyline style="fill-rule:evenodd;"
points="83091,42736
83091,43090
83839,43090
83839,42736
83091,42736
" /> 
<polyline style="fill-rule:evenodd;"
points="84666,42736
84666,43090
85414,43090
85414,42736
84666,42736
" /> 
<polyline style="fill-rule:evenodd;"
points="83091,41948
83091,42303
83839,42303
83839,41948
83091,41948
" /> 
<polyline style="fill-rule:evenodd;"
points="84666,41948
84666,42303
85414,42303
85414,41948
84666,41948
" /> 
<polyline style="fill-rule:evenodd;"
points="83091,41161
83091,41515
83839,41515
83839,41161
83091,41161
" /> 
<polyline style="fill-rule:evenodd;"
points="84666,41161
84666,41515
85414,41515
85414,41161
84666,41161
" /> 
<polyline style="fill-rule:evenodd;"
points="64548,41515
64548,41161
63800,41161
63800,41515
64548,41515
" /> 
<polyline style="fill-rule:evenodd;"
points="62973,41515
62973,41161
62225,41161
62225,41515
62973,41515
" /> 
<polyline style="fill-rule:evenodd;"
points="64548,42303
64548,41948
63800,41948
63800,42303
64548,42303
" /> 
<polyline style="fill-rule:evenodd;"
points="62973,42303
62973,41948
62225,41948
62225,42303
62973,42303
" /> 
<polyline style="fill-rule:evenodd;"
points="64548,43090
64548,42736
63800,42736
63800,43090
64548,43090
" /> 
<polyline style="fill-rule:evenodd;"
points="62973,43090
62973,42736
62225,42736
62225,43090
62973,43090
" /> 
<polyline style="fill-rule:evenodd;"
points="64548,43877
64548,43523
63800,43523
63800,43877
64548,43877
" /> 
<polyline style="fill-rule:evenodd;"
points="62973,43877
62973,43523
62225,43523
62225,43877
62973,43877
" /> 
<polyline style="fill-rule:evenodd;"
points="64548,44665
64548,44311
63800,44311
63800,44665
64548,44665
" /> 
<polyline style="fill-rule:evenodd;"
points="62973,44665
62973,44311
62225,44311
62225,44665
62973,44665
" /> 
<polyline style="fill-rule:evenodd;"
points="64548,45452
64548,45098
63800,45098
63800,45452
64548,45452
" /> 
<polyline style="fill-rule:evenodd;"
points="62973,45452
62973,45098
62225,45098
62225,45452
62973,45452
" /> 
<polyline style="fill-rule:evenodd;"
points="64548,46240
64548,45885
63800,45885
63800,46240
64548,46240
" /> 
<polyline style="fill-rule:evenodd;"
points="62973,46240
62973,45885
62225,45885
62225,46240
62973,46240
" /> 
<polyline style="fill-rule:evenodd;"
points="64548,47027
64548,46673
63800,46673
63800,47027
64548,47027
" /> 
<polyline style="fill-rule:evenodd;"
points="62973,47027
62973,46673
62225,46673
62225,47027
62973,47027
" /> 
<polyline style="fill-rule:evenodd;"
points="64548,47814
64548,47460
63800,47460
63800,47814
64548,47814
" /> 
<polyline style="fill-rule:evenodd;"
points="62973,47814
62973,47460
62225,47460
62225,47814
62973,47814
" /> 
<polyline style="fill-rule:evenodd;"
points="64548,48602
64548,48248
63800,48248
63800,48602
64548,48602
" /> 
<polyline style="fill-rule:evenodd;"
points="62973,48602
62973,48248
62225,48248
62225,48602
62973,48602
" /> 
<polyline style="fill-rule:evenodd;"
points="64548,49389
64548,49035
63800,49035
63800,49389
64548,49389
" /> 
<polyline style="fill-rule:evenodd;"
points="62973,49389
62973,49035
62225,49035
62225,49389
62973,49389
" /> 
<polyline style="fill-rule:evenodd;"
points="64548,50177
64548,49822
63800,49822
63800,50177
64548,50177
" /> 
<polyline style="fill-rule:evenodd;"
points="62973,50177
62973,49822
62225,49822
62225,50177
62973,50177
" /> 
<polyline style="fill-rule:evenodd;"
points="62856,50925
62856,51436
63167,51436
63167,50925
62856,50925
" /> 
<polyline style="fill-rule:evenodd;"
points="63606,50925
63606,51436
63917,51436
63917,50925
63606,50925
" /> 
<circle cx="60737.1" cy="42126" r="275.815" /> 
<circle cx="59737.1" cy="42126" r="275.815" /> 
<polyline style="fill-rule:evenodd;"
points="79685,49704
80158,49704
80158,49468
79685,49468
79685,49704
" /> 
<polyline style="fill-rule:evenodd;"
points="79685,48956
80158,48956
80158,48720
79685,48720
79685,48956
" /> 
<polyline style="fill-rule:evenodd;"
points="80473,49704
80945,49704
80945,49468
80473,49468
80473,49704
" /> 
<polyline style="fill-rule:evenodd;"
points="80473,48956
80945,48956
80945,48720
80473,48720
80473,48956
" /> 
<polyline style="fill-rule:evenodd;"
points="81654,50098
82126,50098
82126,49862
81654,49862
81654,50098
" /> 
<polyline style="fill-rule:evenodd;"
points="81654,49350
82126,49350
82126,49114
81654,49114
81654,49350
" /> 
<polyline style="fill-rule:evenodd;"
points="79370,49507
78898,49507
78898,49744
79370,49744
79370,49507
" /> 
<polyline style="fill-rule:evenodd;"
points="79370,50255
78898,50255
78898,50492
79370,50492
79370,50255
" /> 
<polyline style="fill-rule:evenodd;"
points="78189,49507
77717,49507
77717,49744
78189,49744
78189,49507
" /> 
<polyline style="fill-rule:evenodd;"
points="78189,50255
77717,50255
77717,50492
78189,50492
78189,50255
" /> 
<polyline style="fill-rule:evenodd;"
points="83701,50688
83229,50688
83229,50925
83701,50925
83701,50688
" /> 
<polyline style="fill-rule:evenodd;"
points="83701,51437
83229,51437
83229,51673
83701,51673
83701,51437
" /> 
<polyline style="fill-rule:evenodd;"
points="83091,40374
83091,40728
83839,40728
83839,40374
83091,40374
" /> 
<polyline style="fill-rule:evenodd;"
points="84666,40374
84666,40728
85414,40728
85414,40374
84666,40374
" /> 
<polyline style="fill-rule:evenodd;"
points="83091,39586
83091,39940
83839,39940
83839,39586
83091,39586
" /> 
<polyline style="fill-rule:evenodd;"
points="84666,39586
84666,39940
85414,39940
85414,39586
84666,39586
" /> 
<polyline style="fill-rule:evenodd;"
points="83091,38799
83091,39153
83839,39153
83839,38799
83091,38799
" /> 
<polyline style="fill-rule:evenodd;"
points="84666,38799
84666,39153
85414,39153
85414,38799
84666,38799
" /> 
<polyline style="fill-rule:evenodd;"
points="83091,38011
83091,38366
83839,38366
83839,38011
83091,38011
" /> 
<polyline style="fill-rule:evenodd;"
points="84666,38011
84666,38366
85414,38366
85414,38011
84666,38011
" /> 
<polyline style="fill-rule:evenodd;"
points="83091,37224
83091,37578
83839,37578
83839,37224
83091,37224
" /> 
<polyline style="fill-rule:evenodd;"
points="84666,37224
84666,37578
85414,37578
85414,37224
84666,37224
" /> 
<polyline style="fill-rule:evenodd;"
points="83091,36437
83091,36791
83839,36791
83839,36437
83091,36437
" /> 
<polyline style="fill-rule:evenodd;"
points="84666,36437
84666,36791
85414,36791
85414,36437
84666,36437
" /> 
<polyline style="fill-rule:evenodd;"
points="83091,35649
83091,36003
83839,36003
83839,35649
83091,35649
" /> 
<polyline style="fill-rule:evenodd;"
points="84666,35649
84666,36003
85414,36003
85414,35649
84666,35649
" /> 
<polyline style="fill-rule:evenodd;"
points="83091,34862
83091,35216
83839,35216
83839,34862
83091,34862
" /> 
<polyline style="fill-rule:evenodd;"
points="84666,34862
84666,35216
85414,35216
85414,34862
84666,34862
" /> 
<polyline style="fill-rule:evenodd;"
points="83091,34074
83091,34429
83839,34429
83839,34074
83091,34074
" /> 
<polyline style="fill-rule:evenodd;"
points="84666,34074
84666,34429
85414,34429
85414,34074
84666,34074
" /> 
<polyline style="fill-rule:evenodd;"
points="83091,33287
83091,33641
83839,33641
83839,33287
83091,33287
" /> 
<polyline style="fill-rule:evenodd;"
points="84666,33287
84666,33641
85414,33641
85414,33287
84666,33287
" /> 
<polyline style="fill-rule:evenodd;"
points="83091,32500
83091,32854
83839,32854
83839,32500
83091,32500
" /> 
<polyline style="fill-rule:evenodd;"
points="84666,32500
84666,32854
85414,32854
85414,32500
84666,32500
" /> 
<polyline style="fill-rule:evenodd;"
points="83091,31712
83091,32066
83839,32066
83839,31712
83091,31712
" /> 
<polyline style="fill-rule:evenodd;"
points="84666,31712
84666,32066
85414,32066
85414,31712
84666,31712
" /> 
<polyline style="fill-rule:evenodd;"
points="64548,32066
64548,31712
63800,31712
63800,32066
64548,32066
" /> 
<polyline style="fill-rule:evenodd;"
points="62973,32066
62973,31712
62225,31712
62225,32066
62973,32066
" /> 
<polyline style="fill-rule:evenodd;"
points="64548,32854
64548,32500
63800,32500
63800,32854
64548,32854
" /> 
<polyline style="fill-rule:evenodd;"
points="62973,32854
62973,32500
62225,32500
62225,32854
62973,32854
" /> 
<polyline style="fill-rule:evenodd;"
points="64548,33641
64548,33287
63800,33287
63800,33641
64548,33641
" /> 
<polyline style="fill-rule:evenodd;"
points="62973,33641
62973,33287
62225,33287
62225,33641
62973,33641
" /> 
<polyline style="fill-rule:evenodd;"
points="64548,34429
64548,34074
63800,34074
63800,34429
64548,34429
" /> 
<polyline style="fill-rule:evenodd;"
points="62973,34429
62973,34074
62225,34074
62225,34429
62973,34429
" /> 
<polyline style="fill-rule:evenodd;"
points="64548,35216
64548,34862
63800,34862
63800,35216
64548,35216
" /> 
<polyline style="fill-rule:evenodd;"
points="62973,35216
62973,34862
62225,34862
62225,35216
62973,35216
" /> 
<polyline style="fill-rule:evenodd;"
points="64548,36003
64548,35649
63800,35649
63800,36003
64548,36003
" /> 
<polyline style="fill-rule:evenodd;"
points="62973,36003
62973,35649
62225,35649
62225,36003
62973,36003
" /> 
<polyline style="fill-rule:evenodd;"
points="64548,36791
64548,36437
63800,36437
63800,36791
64548,36791
" /> 
<polyline style="fill-rule:evenodd;"
points="62973,36791
62973,36437
62225,36437
62225,36791
62973,36791
" /> 
<polyline style="fill-rule:evenodd;"
points="64548,37578
64548,37224
63800,37224
63800,37578
64548,37578
" /> 
<polyline style="fill-rule:evenodd;"
points="62973,37578
62973,37224
62225,37224
62225,37578
62973,37578
" /> 
<polyline style="fill-rule:evenodd;"
points="64548,38366
64548,38011
63800,38011
63800,38366
64548,38366
" /> 
<polyline style="fill-rule:evenodd;"
points="62973,38366
62973,38011
62225,38011
62225,38366
62973,38366
" /> 
<polyline style="fill-rule:evenodd;"
points="64548,39153
64548,38799
63800,38799
63800,39153
64548,39153
" /> 
<polyline style="fill-rule:evenodd;"
points="62973,39153
62973,38799
62225,38799
62225,39153
62973,39153
" /> 
<polyline style="fill-rule:evenodd;"
points="64548,39940
64548,39586
63800,39586
63800,39940
64548,39940
" /> 
<polyline style="fill-rule:evenodd;"
points="62973,39940
62973,39586
62225,39586
62225,39940
62973,39940
" /> 
<polyline style="fill-rule:evenodd;"
points="64548,40728
64548,40374
63800,40374
63800,40728
64548,40728
" /> 
<polyline style="fill-rule:evenodd;"
points="62973,40728
62973,40374
62225,40374
62225,40728
62973,40728
" /> 
<polyline style="fill-rule:evenodd;"
points="81347,47488
81347,47999
81858,47999
81858,47488
81347,47488
" /> 
<circle cx="80603.2" cy="47744.1" r="255.315" /> 
<circle cx="80603.2" cy="46744.1" r="255.315" /> 
</g>
<g style="fill:#000000; fill-opacity:1.0; 
stroke:#000000; stroke-width:100; stroke-opacity:1; 
stroke-linecap:round; stroke-linejoin:round;">
</g>
<g style="fill:#000000; fill-opacity:0.0; 
stroke:#000000; stroke-width:100; stroke-opacity:1; 
stroke-linecap:round; stroke-linejoin:round;">
<path d="M64370 35039
L64174 35039
" />
</g>
<g style="fill:#000000; fill-opacity:0.0; 
stroke:#000000; stroke-width:196.85; stroke-opacity:1; 
stroke-linecap:round; stroke-linejoin:round;">
<path d="M82873 40155
L83268 40551
" />
<path d="M82873 36222
L82873 40155
" />
<path d="M83268 35826
L82873 36222
" />
<path d="M83268 42913
L83465 42913
" />
<path d="M82873 42518
L83268 42913
" />
<path d="M82873 40946
L82873 42518
" />
<path d="M83268 40551
L82873 40946
" />
<path d="M83465 40551
L83268 40551
" />
<path d="M83465 42913
L85040 42913
" />
<path d="M62007 38581
L62402 38976
" />
<path d="M62007 32285
L62007 38581
" />
<path d="M62402 31889
L62007 32285
" />
<path d="M62599 31889
L62402 31889
" />
<path d="M60737 41708
L60737 42125
" />
<path d="M62402 38976
L60737 40641
" />
<path d="M60737 40641
L60737 41708
" />
<path d="M62599 38976
L62402 38976
" />
<path d="M64764 35039
L64174 35039
" />
<path d="M64766 35037
L64764 35039
" />
<path d="M64766 31534
L64766 35037
" />
<path d="M63191 31494
L64726 31494
" />
<path d="M62796 31889
L63191 31494
" />
<path d="M64726 31494
L64766 31534
" />
<path d="M62599 31889
L62796 31889
" />
<path d="M83268 35826
L83465 35826
" />
<path d="M82481 35039
L83268 35826
" />
<path d="M64174 35039
L82481 35039
" />
<path d="M62402 46062
L61418 45078
" />
<path d="M61418 42807
L60737 42125
" />
<path d="M61418 45078
L61418 42807
" />
<path d="M62007 47242
L62402 47637
" />
<path d="M62007 46458
L62007 47242
" />
<path d="M62402 46062
L62007 46458
" />
<path d="M62599 46062
L62402 46062
" />
<path d="M62639 51181
L63011 51181
" />
<path d="M62007 50548
L62639 51181
" />
<path d="M62007 48033
L62007 50548
" />
<path d="M62402 47637
L62007 48033
" />
<path d="M62599 47637
L62402 47637
" />
<path d="M83465 50000
L83465 50807
" />
<path d="M64880 48425
L64174 48425
" />
<path d="M66435 49980
L64880 48425
" />
<path d="M81910 50000
L81890 49980
" />
<path d="M83465 50000
L81910 50000
" />
<path d="M81890 49980
L66435 49980
" />
<path d="M64174 51968
L64961 51181
" />
<path d="M60237 51968
L64174 51968
" />
<path d="M64961 48506
L64880 48425
" />
<path d="M64520 51181
L64961 50739
" />
<path d="M63761 51181
L64520 51181
" />
<path d="M64961 50739
L64961 48506
" />
<path d="M64961 51181
L64961 50739
" />
<path d="M59737 51468
L60237 51968
" />
<path d="M59737 42125
L59737 51468
" />
</g>
<g style="fill:#000000; fill-opacity:0.0; 
stroke:#000000; stroke-width:100; stroke-opacity:1; 
stroke-linecap:round; stroke-linejoin:round;">
<path d="M87902 51681
L87527 51681
" />
<path d="M87527 51681
L87102 51256
" />
<path d="M87102 51256
L84120 51256
" />
<path d="M84120 51256
L83821 51555
" />
<path d="M83821 51555
L83465 51555
" />
<path d="M81890 48031
L81603 47744
" />
<path d="M81890 49232
L81890 48031
" />
<path d="M86902 50681
L84255 50681
" />
<path d="M84255 50681
L83841 51094
" />
<path d="M83841 51094
L80211 51094
" />
<path d="M80211 51094
L79490 50374
" />
<path d="M79490 50374
L79134 50374
" />
<path d="M85237 48425
L86902 50090
" />
<path d="M86902 50292
L86902 50681
" />
<path d="M86902 50090
L86902 50292
" />
<path d="M85040 48425
L85237 48425
" />
<path d="M79922 47425
L80603 46744
" />
<path d="M80992 46744
L80603 46744
" />
<path d="M83268 47637
L82374 46744
" />
<path d="M82374 46744
L80992 46744
" />
<path d="M83465 47637
L83268 47637
" />
<path d="M79922 48838
L79922 47425
" />
<path d="M80709 47850
L80603 47744
" />
<path d="M80709 48838
L80709 47850
" />
<path d="M86902 51681
L86221 52362
" />
<path d="M86221 52362
L80297 52362
" />
<path d="M80297 52362
L78309 50374
" />
<path d="M78309 50374
L77953 50374
" />
<path d="M62402 48425
L62599 48425
" />
<path d="M79922 49586
L80709 49586
" />
<path d="M66392 49586
L64837 48031
" />
<path d="M79922 49586
L66392 49586
" />
<path d="M64837 48031
L62599 48031
" />
<path d="M62599 48031
L62599 48425
" />
</g>
<g style="fill:#000000; fill-opacity:1.0; 
stroke:#000000; stroke-width:100; stroke-opacity:1; 
stroke-linecap:round; stroke-linejoin:round;">
<polyline style="fill-rule:evenodd;"
points="54207,52879
55853,52879
55853,37235
55980,36926
56217,36689
56525,36561
56860,36560
57169,36688
57405,36924
57534,37233
57534,37568
57406,37877
57170,38113
56861,38241
56527,38242
56218,38114
55981,37878
55853,37569
55853,37235
55853,52879
57191,52879
57191,52541
57191,52442
57191,51733
57191,43541
57191,43442
57191,42733
57229,42641
57300,42571
57392,42533
57491,42533
58869,42533
58961,42571
59031,42641
59069,42733
59069,42833
59069,43541
59031,43633
58961,43704
58869,43742
58770,43742
57392,43742
57300,43704
57229,43633
57191,43541
57191,51733
57229,51641
57300,51571
57392,51533
57491,51533
58869,51533
58961,51571
59031,51641
59069,51733
59069,51833
59069,52541
59031,52633
58961,52704
58869,52742
58770,52742
57392,52742
57300,52704
57229,52633
57191,52541
57191,52879
59191,52879
59191,42017
59274,41817
59427,41663
59628,41580
59845,41580
60045,41663
60199,41816
60234,41901
60259,41840
60354,41814
60425,41884
60425,41743
60451,41648
60656,41575
60873,41586
61022,41648
61049,41743
60737,42055
60425,41743
60425,41884
60666,42125
60660,42131
60731,42202
60737,42196
60807,42267
60807,42125
61119,41814
61214,41840
61287,42045
61276,42262
61214,42411
61119,42437
60807,42125
60807,42267
61049,42508
61022,42603
60817,42676
60601,42665
60545,42642
60562,42725
60537,42850
60466,42955
60361,43026
60341,43030
60337,43050
60266,43155
60161,43226
60085,43241
60085,44529
60168,44329
60321,44175
60521,44092
60738,44092
60939,44175
61092,44328
61175,44528
61176,44745
61093,44946
60940,45099
60739,45182
60522,45183
60322,45100
60168,44947
60085,44746
60085,44638
60085,46623
60091,46501
60153,46352
60248,46326
60319,46396
60319,46255
60345,46160
60550,46087
60766,46098
60915,46160
60942,46255
60630,46567
60319,46255
60319,46396
60560,46637
60248,46949
60153,46922
60085,46731
60085,48623
60091,48501
60153,48352
60248,48326
60319,48396
60319,48255
60319,47020
60630,46708
60701,46779
60701,46637
61013,46326
61108,46352
61180,46557
61169,46773
61108,46922
61013,46949
60701,46637
60701,46779
60942,47020
60915,47115
60711,47187
60494,47176
60345,47115
60319,47020
60319,48255
60345,48160
60550,48087
60766,48098
60915,48160
60942,48255
60630,48567
60319,48255
60319,48396
60560,48637
60248,48949
60153,48922
60085,48731
60085,50529
60168,50329
60319,50178
60319,49020
60630,48708
60701,48779
60701,48637
61013,48326
61108,48352
61180,48557
61169,48773
61108,48922
61013,48949
60701,48637
60701,48779
60942,49020
60915,49115
60711,49187
60494,49176
60345,49115
60319,49020
60319,50178
60321,50175
60521,50092
60738,50092
60939,50175
61092,50328
61175,50528
61176,50745
61093,50946
60940,51099
60739,51182
60522,51183
60322,51100
60168,50947
60085,50746
60085,50638
60085,51324
60381,51620
62647,51620
62624,51597
62586,51505
62586,51406
62586,51293
62586,51068
62586,50955
62586,50856
62624,50764
62695,50694
62786,50656
62899,50656
62961,50718
62961,51131
62649,51131
62586,51068
62586,51293
62649,51231
62961,51231
62961,51238
63061,51238
63061,51231
63069,51231
63069,51131
63061,51131
63061,50718
63124,50656
63236,50656
63328,50694
63386,50752
63445,50694
63536,50656
63636,50656
63986,50656
64078,50694
64148,50764
64176,50832
64376,50832
64613,50595
64613,50446
64518,50446
63730,50446
63638,50408
63568,50338
63530,50246
63530,50147
63530,49753
63568,49661
63623,49606
63568,49551
63530,49459
63530,49359
63530,48966
63568,48874
63623,48818
63568,48763
63530,48671
63530,48572
63530,48331
63242,48331
63242,48671
63204,48763
63149,48818
63204,48874
63242,48966
63242,49065
63242,49459
63204,49551
63149,49606
63204,49661
63242,49753
63242,49852
63242,50246
63204,50338
63134,50408
63042,50446
62943,50446
62155,50446
62063,50408
61993,50338
61955,50246
61955,50147
61955,49753
61993,49661
62048,49606
61993,49551
61955,49459
61955,49359
61955,48966
61993,48874
62048,48818
61993,48763
61955,48671
61955,48572
61955,48178
61993,48086
62048,48031
61993,47976
61955,47884
61955,47784
61955,47750
61955,47525
61955,47490
61955,47391
61993,47299
62048,47244
61993,47188
61955,47096
61955,46997
61955,46603
61993,46511
62048,46456
61993,46401
61955,46309
61955,46210
61955,46175
61955,45950
61955,45915
61955,45816
61993,45724
62048,45669
61993,45614
61955,45522
61955,45422
61955,45029
61993,44937
62048,44881
61993,44826
61955,44734
61955,44635
61955,44241
61993,44149
62048,44094
61993,44039
61955,43947
61955,43847
61955,43454
61993,43362
62048,43307
61993,43251
61955,43159
61955,43060
61955,42666
61993,42574
62048,42519
61993,42464
61955,42372
61955,42273
61955,41879
61993,41787
62048,41732
61993,41677
61955,41585
61955,41485
61955,41092
61993,41000
62048,40944
61993,40889
61955,40797
61955,40698
61955,40304
61993,40212
62048,40157
61993,40102
61955,40010
61955,39910
61955,39517
61993,39425
62048,39370
61993,39314
61955,39222
61955,39123
61955,39088
61955,38863
61955,38829
61955,38729
61993,38637
62048,38582
61993,38527
61955,38435
61955,38336
61955,37942
61993,37850
62048,37795
61993,37740
61955,37648
61955,37548
61955,37154
61993,37063
62048,37007
61993,36952
61955,36860
61955,36761
61955,36367
61993,36275
62048,36220
61993,36165
61955,36073
61955,35973
61955,35580
61993,35488
62048,35433
61993,35377
61955,35285
61955,35186
61955,34792
61993,34700
62048,34645
61993,34590
61955,34498
61955,34399
61955,34005
61993,33913
62048,33858
61993,33803
61955,33711
61955,33611
61955,33217
61993,33126
62048,33070
61993,33015
61955,32923
61955,32824
61955,32430
61993,32338
62048,32283
61993,32228
61955,32136
61955,32036
61955,32002
61955,31777
61955,31742
61955,31643
61993,31551
62063,31480
62155,31442
62486,31442
62549,31505
62549,31839
62018,31839
61955,31777
61955,32002
62018,31939
62549,31939
62549,31947
62649,31947
62649,31939
62649,31839
62649,31505
62711,31442
63042,31442
63134,31480
63204,31551
63242,31643
63242,31742
63242,31777
63180,31839
62649,31839
62649,31939
63180,31939
63242,32002
63242,32036
63242,32136
63204,32228
63149,32283
63204,32338
63242,32430
63242,32530
63242,32923
63204,33015
63149,33070
63204,33126
63242,33217
63242,33317
63242,33711
63204,33803
63149,33858
63204,33913
63242,34005
63242,34104
63242,34498
63204,34590
63149,34645
63204,34700
63242,34792
63242,34892
63242,35285
63204,35377
63149,35433
63204,35488
63242,35580
63242,35679
63242,36073
63204,36165
63149,36220
63204,36275
63242,36367
63242,36467
63242,36860
63204,36952
63149,37007
63204,37063
63242,37154
63242,37254
63242,37648
63204,37740
63149,37795
63204,37850
63242,37942
63242,38041
63242,38435
63204,38527
63149,38582
63204,38637
63242,38729
63242,38829
63242,38863
63180,38926
62649,38926
62649,38918
62549,38918
62549,38926
62018,38926
61955,38863
61955,39088
62018,39026
62549,39026
62549,39034
62649,39034
62649,39026
63180,39026
63242,39088
63242,39123
63242,39222
63204,39314
63149,39370
63204,39425
63242,39517
63242,39616
63242,40010
63204,40102
63149,40157
63204,40212
63242,40304
63242,40404
63242,40797
63204,40889
63149,40944
63204,41000
63242,41092
63242,41191
63242,41585
63204,41677
63149,41732
63204,41787
63242,41879
63242,41978
63242,42372
63204,42464
63149,42519
63204,42574
63242,42666
63242,42766
63242,43159
63204,43251
63149,43307
63204,43362
63242,43454
63242,43553
63242,43947
63204,44039
63149,44094
63204,44149
63242,44241
63242,44341
63242,44734
63204,44826
63149,44881
63204,44937
63242,45029
63242,45128
63242,45522
63204,45614
63149,45669
63204,45724
63242,45816
63242,45915
63242,45950
63180,46012
62649,46012
62649,46005
62549,46005
62549,46012
62018,46012
61955,45950
61955,46175
62018,46112
62549,46112
62549,46120
62649,46120
62649,46112
63180,46112
63242,46175
63242,46210
63242,46309
63204,46401
63149,46456
63204,46511
63242,46603
63242,46703
63242,47096
63204,47188
63149,47244
63204,47299
63242,47391
63242,47490
63242,47525
63180,47587
62649,47587
62649,47579
62549,47579
62549,47587
62018,47587
61955,47525
61955,47750
62018,47687
62549,47687
62549,47695
62649,47695
62649,47687
63180,47687
63224,47731
63530,47731
63530,47391
63568,47299
63623,47244
63568,47188
63530,47096
63530,46997
63530,46603
63568,46511
63623,46456
63568,46401
63530,46309
63530,46210
63530,45816
63568,45724
63623,45669
63568,45614
63530,45522
63530,45422
63530,45029
63568,44937
63623,44881
63568,44826
63530,44734
63530,44635
63530,44241
63568,44149
63623,44094
63568,44039
63530,43947
63530,43847
63530,43454
63568,43362
63623,43307
63568,43251
63530,43159
63530,43060
63530,42666
63568,42574
63623,42519
63568,42464
63530,42372
63530,42273
63530,41879
63568,41787
63623,41732
63568,41677
63530,41585
63530,41485
63530,41092
63568,41000
63623,40944
63568,40889
63530,40797
63530,40698
63530,40304
63568,40212
63623,40157
63568,40102
63530,40010
63530,39910
63530,39517
63568,39425
63623,39370
63568,39314
63530,39222
63530,39123
63530,38729
63568,38637
63623,38582
63568,38527
63530,38435
63530,38336
63530,37942
63568,37850
63623,37795
63568,37740
63530,37648
63530,37548
63530,37154
63568,37063
63623,37007
63568,36952
63530,36860
63530,36761
63530,36367
63568,36275
63623,36220
63568,36165
63530,36073
63530,35973
63530,35580
63568,35488
63623,35433
63568,35377
63530,35285
63530,35186
63530,35151
63530,34926
63530,34892
63530,34792
63568,34700
63623,34645
63568,34590
63530,34498
63530,34399
63530,34005
63568,33913
63623,33858
63568,33803
63530,33711
63530,33611
63530,33217
63568,33126
63623,33070
63568,33015
63530,32923
63530,32824
63530,32430
63568,32338
63623,32283
63568,32228
63530,32136
63530,32036
63530,31643
63568,31551
63638,31480
63730,31442
63830,31442
64617,31442
64709,31480
64779,31551
64817,31643
64817,31742
64817,32136
64779,32228
64724,32283
64779,32338
64817,32430
64817,32530
64817,32923
64779,33015
64724,33070
64779,33126
64817,33217
64817,33317
64817,33711
64779,33803
64724,33858
64779,33913
64817,34005
64817,34104
64817,34498
64779,34590
64724,34645
64779,34700
64817,34792
64817,34892
64817,34926
64755,34989
64224,34989
64224,34981
64124,34981
64124,34989
63592,34989
63530,34926
63530,35151
63592,35089
64124,35089
64124,35097
64224,35097
64224,35089
64755,35089
64817,35151
64817,35186
64817,35285
64779,35377
64724,35433
64779,35488
64817,35580
64817,35679
64817,36073
64779,36165
64724,36220
64779,36275
64817,36367
64817,36467
64817,36860
64779,36952
64724,37007
64779,37063
64817,37154
64817,37254
64817,37648
64779,37740
64724,37795
64779,37850
64817,37942
64817,38041
64817,38435
64779,38527
64724,38582
64779,38637
64817,38729
64817,38829
64817,39222
64779,39314
64724,39370
64779,39425
64817,39517
64817,39616
64817,40010
64779,40102
64724,40157
64779,40212
64817,40304
64817,40404
64817,40797
64779,40889
64724,40944
64779,41000
64817,41092
64817,41191
64817,41585
64779,41677
64724,41732
64779,41787
64817,41879
64817,41978
64817,42372
64779,42464
64724,42519
64779,42574
64817,42666
64817,42766
64817,43159
64779,43251
64724,43307
64779,43362
64817,43454
64817,43553
64817,43947
64779,44039
64724,44094
64779,44149
64817,44241
64817,44341
64817,44734
64779,44826
64724,44881
64779,44937
64817,45029
64817,45128
64817,45522
64779,45614
64724,45669
64779,45724
64817,45816
64817,45915
64817,46309
64779,46401
64724,46456
64779,46511
64817,46603
64817,46703
64817,47096
64779,47188
64724,47244
64779,47299
64817,47391
64817,47490
64817,47731
64837,47731
64952,47754
65049,47819
66517,49286
72782,49286
72782,17550
72909,17241
73146,17004
73454,16876
73789,16875
74098,17003
74335,17239
74463,17548
74463,17882
74335,18192
74099,18428
73790,18556
73456,18557
73147,18429
72910,18193
72782,17884
72782,17550
72782,49286
77545,49286
77556,49276
77647,49238
77747,49238
78259,49238
78351,49276
78361,49286
78726,49286
78737,49276
78829,49238
78928,49238
79440,49238
79499,49262
79524,49236
79583,49212
79524,49188
79454,49117
79416,49026
79416,48926
79416,48651
79454,48559
79524,48488
79616,48450
79622,48450
79622,47425
79644,47310
79709,47213
79709,47213
80078,46844
80078,46640
80157,46447
80305,46299
80498,46219
80707,46219
80900,46298
81045,46444
82374,46444
82489,46466
82528,46492
82587,46531
82821,46766
82821,46603
82859,46511
82915,46456
82859,46401
82821,46309
82821,46210
82821,45816
82859,45724
82915,45669
82859,45614
82821,45522
82821,45422
82821,45029
82859,44937
82915,44881
82859,44826
82821,44734
82821,44635
82821,44241
82859,44149
82915,44094
82859,44039
82821,43947
82821,43847
82821,43454
82859,43362
82915,43307
82859,43251
82821,43159
82821,43060
82821,43025
82821,42800
82821,42766
82821,42666
82859,42574
82915,42519
82859,42464
82821,42372
82821,42273
82821,41879
82859,41787
82915,41732
82859,41677
82821,41585
82821,41485
82821,41092
82859,41000
82915,40944
82859,40889
82821,40797
82821,40698
82821,40663
82821,40438
82821,40404
82821,40304
82859,40212
82915,40157
82859,40102
82821,40010
82821,39910
82821,39517
82859,39425
82915,39370
82859,39314
82821,39222
82821,39123
82821,38729
82859,38637
82915,38582
82859,38527
82821,38435
82821,38336
82821,37942
82859,37850
82915,37795
82859,37740
82821,37648
82821,37548
82821,37154
82859,37063
82915,37007
82859,36952
82821,36860
82821,36761
82821,36367
82859,36275
82915,36220
82859,36165
82821,36073
82821,35973
82821,35939
82821,35714
82821,35679
82821,35580
82859,35488
82915,35433
82859,35377
82821,35285
82821,35186
82821,34792
82859,34700
82915,34645
82859,34590
82821,34498
82821,34399
82821,34005
82859,33913
82915,33858
82859,33803
82821,33711
82821,33611
82821,33217
82859,33126
82915,33070
82859,33015
82821,32923
82821,32824
82821,32430
82859,32338
82915,32283
82859,32228
82821,32136
82821,32036
82821,31643
82859,31551
82930,31480
83022,31442
83121,31442
83908,31442
84000,31480
84071,31551
84109,31643
84109,31742
84109,32136
84071,32228
84015,32283
84071,32338
84109,32430
84109,32530
84109,32923
84071,33015
84015,33070
84071,33126
84109,33217
84109,33317
84109,33711
84071,33803
84015,33858
84071,33913
84109,34005
84109,34104
84109,34498
84071,34590
84015,34645
84071,34700
84109,34792
84109,34892
84109,35285
84071,35377
84015,35433
84071,35488
84109,35580
84109,35679
84109,35714
84046,35776
83515,35776
83515,35768
83415,35768
83415,35776
82884,35776
82821,35714
82821,35939
82884,35876
83415,35876
83415,35884
83515,35884
83515,35876
84046,35876
84109,35939
84109,35973
84109,36073
84071,36165
84015,36220
84071,36275
84109,36367
84109,36467
84109,36860
84071,36952
84015,37007
84071,37063
84109,37154
84109,37254
84109,37648
84071,37740
84015,37795
84071,37850
84109,37942
84109,38041
84109,38435
84071,38527
84015,38582
84071,38637
84109,38729
84109,38829
84109,39222
84071,39314
84015,39370
84071,39425
84109,39517
84109,39616
84109,40010
84071,40102
84015,40157
84071,40212
84109,40304
84109,40404
84109,40438
84046,40501
83515,40501
83515,40493
83415,40493
83415,40501
82884,40501
82821,40438
82821,40663
82884,40601
83415,40601
83415,40609
83515,40609
83515,40601
84046,40601
84109,40663
84109,40698
84109,40797
84071,40889
84015,40944
84071,41000
84109,41092
84109,41191
84109,41585
84071,41677
84015,41732
84071,41787
84109,41879
84109,41978
84109,42372
84071,42464
84015,42519
84071,42574
84109,42666
84109,42766
84109,42800
84046,42863
83515,42863
83515,42855
83415,42855
83415,42863
82884,42863
82821,42800
82821,43025
82884,42963
83415,42963
83415,42971
83515,42971
83515,42963
84046,42963
84109,43025
84109,43060
84109,43159
84071,43251
84015,43307
84071,43362
84109,43454
84109,43553
84109,43947
84071,44039
84015,44094
84071,44149
84109,44241
84109,44341
84109,44734
84071,44826
84015,44881
84071,44937
84109,45029
84109,45128
84109,45522
84071,45614
84015,45669
84071,45724
84109,45816
84109,45915
84109,46309
84071,46401
84015,46456
84071,46511
84109,46603
84109,46703
84109,47096
84071,47188
84015,47244
84071,47299
84109,47391
84109,47490
84109,47884
84071,47976
84015,48031
84071,48086
84109,48178
84109,48278
84109,48671
84071,48763
84015,48818
84071,48874
84109,48966
84109,49065
84109,49459
84071,49551
84015,49606
84071,49661
84109,49753
84109,49852
84109,50246
84071,50338
84000,50408
83908,50446
83837,50446
83862,50457
83933,50527
83948,50563
84042,50468
84140,50403
84255,50381
84477,50381
84434,50338
84396,50246
84396,50147
84396,49753
84434,49661
84489,49606
84434,49551
84396,49459
84396,49359
84396,48966
84434,48874
84489,48818
84434,48763
84396,48671
84396,48572
84396,48178
84434,48086
84489,48031
84434,47976
84396,47884
84396,47784
84396,47391
84434,47299
84489,47244
84434,47188
84396,47096
84396,46997
84396,46603
84434,46511
84489,46456
84434,46401
84396,46309
84396,46210
84396,45816
84434,45724
84489,45669
84434,45614
84396,45522
84396,45422
84396,45029
84434,44937
84489,44881
84434,44826
84396,44734
84396,44635
84396,44241
84434,44149
84489,44094
84434,44039
84396,43947
84396,43847
84396,43454
84434,43362
84489,43307
84434,43251
84396,43159
84396,43060
84396,43025
84396,42800
84396,42766
84396,42666
84434,42574
84489,42519
84434,42464
84396,42372
84396,42273
84396,41879
84434,41787
84489,41732
84434,41677
84396,41585
84396,41485
84396,41092
84434,41000
84489,40944
84434,40889
84396,40797
84396,40698
84396,40304
84434,40212
84489,40157
84434,40102
84396,40010
84396,39910
84396,39517
84434,39425
84489,39370
84434,39314
84396,39222
84396,39123
84396,38729
84434,38637
84489,38582
84434,38527
84396,38435
84396,38336
84396,37942
84434,37850
84489,37795
84434,37740
84396,37648
84396,37548
84396,37154
84434,37063
84489,37007
84434,36952
84396,36860
84396,36761
84396,36367
84434,36275
84489,36220
84434,36165
84396,36073
84396,35973
84396,35580
84434,35488
84489,35433
84434,35377
84396,35285
84396,35186
84396,34792
84434,34700
84489,34645
84434,34590
84396,34498
84396,34399
84396,34005
84434,33913
84489,33858
84434,33803
84396,33711
84396,33611
84396,33217
84434,33126
84489,33070
84434,33015
84396,32923
84396,32824
84396,32430
84434,32338
84489,32283
84434,32228
84396,32136
84396,32036
84396,31643
84434,31551
84504,31480
84596,31442
84696,31442
85483,31442
85575,31480
85645,31551
85683,31643
85683,31742
85683,32136
85645,32228
85590,32283
85645,32338
85683,32430
85683,32530
85683,32923
85645,33015
85590,33070
85645,33126
85683,33217
85683,33317
85683,33711
85645,33803
85590,33858
85645,33913
85683,34005
85683,34104
85683,34498
85645,34590
85590,34645
85645,34700
85683,34792
85683,34892
85683,35285
85645,35377
85590,35433
85645,35488
85683,35580
85683,35679
85683,36073
85645,36165
85590,36220
85645,36275
85683,36367
85683,36467
85683,36860
85645,36952
85590,37007
85645,37063
85683,37154
85683,37254
85683,37648
85645,37740
85590,37795
85645,37850
85683,37942
85683,38041
85683,38435
85645,38527
85590,38582
85645,38637
85683,38729
85683,38829
85683,39222
85645,39314
85590,39370
85645,39425
85683,39517
85683,39616
85683,40010
85645,40102
85590,40157
85645,40212
85683,40304
85683,40404
85683,40797
85645,40889
85590,40944
85645,41000
85683,41092
85683,41191
85683,41585
85645,41677
85590,41732
85645,41787
85683,41879
85683,41978
85683,42372
85645,42464
85590,42519
85645,42574
85683,42666
85683,42766
85683,42800
85621,42863
85090,42863
85090,42855
84990,42855
84990,42863
84459,42863
84396,42800
84396,43025
84459,42963
84990,42963
84990,42971
85090,42971
85090,42963
85621,42963
85683,43025
85683,43060
85683,43159
85645,43251
85590,43307
85645,43362
85683,43454
85683,43553
85683,43947
85645,44039
85590,44094
85645,44149
85683,44241
85683,44341
85683,44734
85645,44826
85590,44881
85645,44937
85683,45029
85683,45128
85683,45522
85645,45614
85590,45669
85645,45724
85683,45816
85683,45915
85683,46309
85645,46401
85590,46456
85645,46511
85683,46603
85683,46703
85683,47096
85645,47188
85590,47244
85645,47299
85683,47391
85683,47490
85683,47884
85645,47976
85590,48031
85645,48086
85683,48178
85683,48278
85683,48447
87114,49878
87179,49975
87202,50090
87202,50238
87347,50383
87427,50576
87427,50785
87347,50978
87295,51030
87314,51043
87475,51204
87485,51194
87577,51156
87677,51156
88227,51156
88319,51194
88389,51264
88427,51356
88427,51455
88427,52005
88389,52097
88319,52168
88227,52206
88127,52206
87577,52206
87485,52168
87415,52097
87377,52005
87377,51934
87368,51928
87347,51978
87200,52125
87007,52206
86801,52206
86433,52574
86433,52574
86336,52639
86221,52662
80297,52662
80297,52662
80182,52639
80182,52639
80085,52574
78269,50757
78259,50761
78159,50761
77647,50761
77556,50723
77485,50653
77447,50561
77447,50462
77447,50328
66435,50328
66435,50328
66435,50328
66324,50306
66301,50302
66301,50302
66188,50226
65309,49347
65309,50739
65309,50739
65309,50739
65309,51181
65309,51181
65287,51292
65283,51314
65207,51427
64420,52214
64420,52214
64307,52290
64174,52316
64174,52316
64174,52316
60237,52316
60237,52316
60237,52316
60125,52294
60103,52290
60103,52290
59990,52214
59490,51714
59490,51714
59490,51714
59415,51601
59388,51468
59388,51468
59388,51468
59388,42548
59274,42435
59191,42234
59191,42017
59191,52879
89711,52879
89711,37235
89839,36926
90075,36689
90384,36561
90718,36560
91027,36688
91264,36924
91392,37233
91392,37568
91265,37877
91028,38113
90719,38241
90385,38242
90076,38114
89839,37878
89711,37569
89711,37235
89711,52879
89899,52879
89899,50316
89982,50116
90135,49962
90224,49925
90136,49888
89982,49735
89899,49534
89899,49316
89982,49116
90135,48962
90224,48925
90136,48888
89982,48735
89899,48534
89899,48316
89982,48116
90135,47962
90224,47925
90136,47888
89982,47735
89899,47534
89899,47316
89982,47116
90135,46962
90224,46925
90136,46888
89982,46735
89899,46534
89899,46316
89982,46116
90135,45962
90336,45878
90553,45878
90754,45961
90908,46115
90945,46204
90982,46116
91135,45962
91336,45878
91553,45878
91754,45961
91908,46115
91992,46316
91992,46533
91909,46734
91755,46888
91666,46925
91754,46961
91908,47115
91992,47316
91992,47533
91909,47734
91755,47888
91666,47925
91754,47961
91908,48115
91992,48316
91992,48533
91909,48734
91755,48888
91666,48925
91754,48961
91908,49115
91992,49316
91992,49533
91909,49734
91755,49888
91666,49925
91754,49961
91908,50115
91992,50316
91992,50533
91909,50734
91755,50888
91554,50971
91337,50971
91136,50888
90982,50735
90945,50646
90909,50734
90755,50888
90554,50971
90337,50971
90136,50888
89982,50735
89899,50534
89899,50316
89899,52879
93038,52879
93038,35480
85245,14049
62000,14049
54207,35480
54207,52879
" /> 
</g>
<g style="fill:#FFFFFF; fill-opacity:1.0; 
stroke:#FFFFFF; stroke-width:39.3701; stroke-opacity:1; 
stroke-linecap:round; stroke-linejoin:round;">
<circle cx="87902.4" cy="51681.1" r="140.315" /> 
<circle cx="86902.4" cy="51681.1" r="140.315" /> 
<circle cx="86902.4" cy="50681.1" r="140.315" /> 
<circle cx="90445.7" cy="50425.2" r="176.815" /> 
<circle cx="91445.7" cy="50425.2" r="176.815" /> 
<circle cx="90445.7" cy="49425.2" r="176.815" /> 
<circle cx="91445.7" cy="49425.2" r="176.815" /> 
<circle cx="90445.7" cy="48425.2" r="176.815" /> 
<circle cx="91445.7" cy="48425.2" r="176.815" /> 
<circle cx="90445.7" cy="47425.2" r="176.815" /> 
<circle cx="91445.7" cy="47425.2" r="176.815" /> 
<circle cx="90445.7" cy="46425.2" r="176.815" /> 
<circle cx="91445.7" cy="46425.2" r="176.815" /> 
</g>
<g style="fill:#FFFFFF; fill-opacity:1.0; 
stroke:#FFFFFF; stroke-width:314.961; stroke-opacity:1; 
stroke-linecap:round; stroke-linejoin:round;">
</g>
<g style="fill:#FFFFFF; fill-opacity:0.0; 
stroke:#FFFFFF; stroke-width:314.961; stroke-opacity:1; 
stroke-linecap:round; stroke-linejoin:round;">
<path d="M57796 43137
L58465 43137
" />
</g>
<g style="fill:#FFFFFF; fill-opacity:0.0; 
stroke:#FFFFFF; stroke-width:39.3701; stroke-opacity:1; 
stroke-linecap:round; stroke-linejoin:round;">
</g>
<g style="fill:#FFFFFF; fill-opacity:1.0; 
stroke:#FFFFFF; stroke-width:39.3701; stroke-opacity:1; 
stroke-linecap:round; stroke-linejoin:round;">
<circle cx="60630.8" cy="48637.8" r="137.795" /> 
<circle cx="60630.8" cy="50637.8" r="137.795" /> 
<circle cx="60630.8" cy="46637.8" r="137.795" /> 
<circle cx="60630.8" cy="44637.8" r="137.795" /> 
</g>
<g style="fill:#FFFFFF; fill-opacity:1.0; 
stroke:#FFFFFF; stroke-width:314.961; stroke-opacity:1; 
stroke-linecap:round; stroke-linejoin:round;">
</g>
<g style="fill:#FFFFFF; fill-opacity:0.0; 
stroke:#FFFFFF; stroke-width:314.961; stroke-opacity:1; 
stroke-linecap:round; stroke-linejoin:round;">
<path d="M57796 52137
L58465 52137
" />
</g>
<g style="fill:#FFFFFF; fill-opacity:0.0; 
stroke:#FFFFFF; stroke-width:39.3701; stroke-opacity:1; 
stroke-linecap:round; stroke-linejoin:round;">
</g>
<g style="fill:#FFFFFF; fill-opacity:1.0; 
stroke:#FFFFFF; stroke-width:39.3701; stroke-opacity:1; 
stroke-linecap:round; stroke-linejoin:round;">
<circle cx="60737.1" cy="42126" r="137.815" /> 
<circle cx="59737.1" cy="42126" r="137.815" /> 
<circle cx="81603.2" cy="47744.1" r="140.315" /> 
<circle cx="80603.2" cy="47744.1" r="140.315" /> 
<circle cx="80603.2" cy="46744.1" r="140.315" /> 
<circle cx="56693.8" cy="37401.6" r="570.815" /> 
<circle cx="90552" cy="37401.6" r="570.815" /> 
<circle cx="73622.9" cy="17716.5" r="570.815" /> 
</g> 
</svg>
