<?xml version="1.0" standalone="no"?>
 <!DOCTYPE svg PUBLIC "-//W3C//DTD SVG 1.1//EN" 
 "http://www.w3.org/Graphics/SVG/1.1/DTD/svg11.dtd"> 
<svg xmlns="http://www.w3.org/2000/svg" version="1.1" 
    width="10.5181cm" height="1.7526cm" viewBox="0 0 41410 6900 ">
<title>SVG Picture created as Battery internals-brd.svg date 2014/08/28 16:38:08 </title>
  <desc>Picture generated by PCBNEW </desc>
<g style="fill:#000000; fill-opacity:1;stroke:#000000; stroke-opacity:1;
stroke-linecap:round; stroke-linejoin:round; "
 transform="translate(0 0) scale(1 1)">
</g>
<g style="fill:#000000; fill-opacity:0.0; 
stroke:#000000; stroke-width:118.11; stroke-opacity:1; 
stroke-linecap:round; stroke-linejoin:round;">
<path d="M10444 2343
L10894 2343
" />
<path d="M10669 2568
L10669 2118
" />
<path d="M15956 4705
L16406 4705
" />
<path d="M21074 4705
L21524 4705
" />
<path d="M21299 4930
L21299 4480
" />
<path d="M25011 2343
L25461 2343
" />
<path d="M25011 4705
L25461 4705
" />
<path d="M25236 4930
L25236 4480
" />
</g>
<g style="fill:#000000; fill-opacity:0.0; 
stroke:#000000; stroke-width:78.7402; stroke-opacity:1; 
stroke-linecap:round; stroke-linejoin:round;">
</g>
<g style="fill:#000000; fill-opacity:1.0; 
stroke:#000000; stroke-width:78.7402; stroke-opacity:1; 
stroke-linecap:round; stroke-linejoin:round;">
<polyline style="fill-rule:evenodd;"
points="28346,3679
28346,5175
26062,5175
26062,3679
28346,3679
" /> 
<polyline style="fill-rule:evenodd;"
points="28346,1789
28346,3285
26062,3285
26062,1789
28346,1789
" /> 
<polyline style="fill-rule:evenodd;"
points="20636,4033
20636,2931
21237,2931
21237,4033
20636,4033
" /> 
<polyline style="fill-rule:evenodd;"
points="19636,4033
19636,2931
20237,2931
20237,4033
19636,4033
" /> 
<polyline style="fill-rule:evenodd;"
points="18636,4033
18636,2931
19237,2931
19237,4033
18636,4033
" /> 
<polyline style="fill-rule:evenodd;"
points="17636,4033
17636,2931
18237,2931
18237,4033
17636,4033
" /> 
<polyline style="fill-rule:evenodd;"
points="16636,4033
16636,2931
17237,2931
17237,4033
16636,4033
" /> 
<polyline style="fill-rule:evenodd;"
points="15438,2931
15438,4033
14837,4033
14837,2931
15438,2931
" /> 
<polyline style="fill-rule:evenodd;"
points="14438,2931
14438,4033
13837,4033
13837,2931
14438,2931
" /> 
<polyline style="fill-rule:evenodd;"
points="13438,2931
13438,4033
12837,4033
12837,2931
13438,2931
" /> 
<polyline style="fill-rule:evenodd;"
points="12438,2931
12438,4033
11837,4033
11837,2931
12438,2931
" /> 
<polyline style="fill-rule:evenodd;"
points="11438,2931
11438,4033
10837,4033
10837,2931
11438,2931
" /> 
<polyline style="fill-rule:evenodd;"
points="10438,2931
10438,4033
9837,4033
9837,2931
10438,2931
" /> 
<polyline style="fill-rule:evenodd;"
points="29212,3285
29212,1789
31496,1789
31496,3285
29212,3285
" /> 
<polyline style="fill-rule:evenodd;"
points="29212,5175
29212,3679
31496,3679
31496,5175
29212,5175
" /> 
</g>
<g style="fill:#000000; fill-opacity:1.0; 
stroke:#000000; stroke-width:787.402; stroke-opacity:1; 
stroke-linecap:round; stroke-linejoin:round;">
</g>
<g style="fill:#000000; fill-opacity:0.0; 
stroke:#000000; stroke-width:787.402; stroke-opacity:1; 
stroke-linecap:round; stroke-linejoin:round;">
<path d="M3779 3679
L3779 3285
" />
<path d="M5354 2990
L4960 2990
" />
<path d="M5354 3974
L4960 3974
" />
<path d="M6929 2990
L6535 2990
" />
<path d="M6929 3974
L6535 3974
" />
<path d="M8110 3679
L8110 3285
" />
<path d="M37637 3285
L37637 3679
" />
<path d="M36062 3974
L36456 3974
" />
<path d="M36062 2990
L36456 2990
" />
<path d="M34488 3974
L34881 3974
" />
<path d="M34488 2990
L34881 2990
" />
<path d="M33307 3285
L33307 3679
" />
</g>
<g style="fill:#000000; fill-opacity:0.0; 
stroke:#000000; stroke-width:78.7402; stroke-opacity:1; 
stroke-linecap:round; stroke-linejoin:round;">
</g>
<g style="fill:#000000; fill-opacity:1.0; 
stroke:#000000; stroke-width:78.7402; stroke-opacity:1; 
stroke-linecap:round; stroke-linejoin:round;">
<circle cx="1220.47" cy="3482.28" r="760.63" /> 
<circle cx="40196.9" cy="3482.28" r="760.63" /> 
<circle cx="23661.4" cy="3482.28" r="760.63" /> 
</g>
<g style="fill:#000000; fill-opacity:1.0; 
stroke:#000000; stroke-width:157.48; stroke-opacity:1; 
stroke-linecap:round; stroke-linejoin:round;">
</g>
<g style="fill:#000000; fill-opacity:0.0; 
stroke:#000000; stroke-width:157.48; stroke-opacity:1; 
stroke-linecap:round; stroke-linejoin:round;">
<path d="M19652 1946
L11138 1946
" />
<path d="M11138 1946
L6771 1946
" />
<path d="M11137 3482
L11137 2734
" />
<path d="M11137 2734
L11138 2733
" />
<path d="M11138 2733
L11138 1946
" />
<path d="M20937 3482
L20937 3231
" />
<path d="M20937 3231
L19652 1946
" />
<path d="M6771 1946
L5964 2753
" />
<path d="M5964 2753
L5964 3226
" />
<path d="M5964 3226
L6298 3561
" />
<path d="M6298 3561
L6417 3561
" />
<path d="M6417 3561
L6732 3875
" />
<path d="M6732 3875
L6732 3974
" />
<path d="M6732 2990
L7480 2990
" />
<path d="M7480 2990
L7539 3049
" />
<path d="M7539 3049
L7539 3915
" />
<path d="M7539 3915
L7873 4250
" />
<path d="M7873 4250
L11620 4250
" />
<path d="M11620 4250
L12137 3732
" />
<path d="M12137 3732
L12137 3482
" />
<path d="M12137 3482
L12137 3231
" />
<path d="M12137 3231
L13166 2202
" />
<path d="M13166 2202
L18908 2202
" />
<path d="M18908 2202
L19937 3231
" />
<path d="M19937 3231
L19937 3482
" />
<path d="M13137 3482
L13137 3732
" />
<path d="M13137 3732
L12325 4545
" />
<path d="M12325 4545
L5925 4545
" />
<path d="M5925 4545
L5354 3974
" />
<path d="M5354 3974
L5157 3974
" />
<path d="M13137 3482
L13137 2734
" />
<path d="M13413 2458
L18163 2458
" />
<path d="M18163 2458
L18937 3231
" />
<path d="M13137 2734
L13413 2458
" />
<path d="M18937 3231
L18937 3482
" />
<path d="M5157 2990
L4409 2990
" />
<path d="M4409 2990
L4389 3009
" />
<path d="M4389 3009
L4389 4210
" />
<path d="M4389 4210
L4980 4801
" />
<path d="M4980 4801
L13566 4801
" />
<path d="M13566 4801
L14137 4230
" />
<path d="M14137 4230
L14137 3482
" />
<path d="M14137 3732
L14137 3482
" />
<path d="M14137 3482
L14137 2734
" />
<path d="M14137 2734
L14157 2714
" />
<path d="M14157 2714
L17419 2714
" />
<path d="M17419 2714
L17937 3231
" />
<path d="M17937 3231
L17937 3482
" />
<path d="M3779 3482
L3779 4230
" />
<path d="M3779 4230
L4606 5057
" />
<path d="M13813 5057
L15137 3732
" />
<path d="M4606 5057
L13813 5057
" />
<path d="M15137 3732
L15137 3482
" />
<path d="M15137 3482
L16937 3482
" />
<path d="M10137 3482
L8110 3482
" />
</g>
<g style="fill:#000000; fill-opacity:0.0; 
stroke:#000000; stroke-width:1181.1; stroke-opacity:1; 
stroke-linecap:round; stroke-linejoin:round;">
<path d="M30354 2537
L32414 2537
" />
<path d="M32414 2537
L33261 1690
" />
<path d="M33261 1690
L35223 1690
" />
<path d="M35223 1690
L36259 2727
" />
<path d="M36259 2727
L36259 2990
" />
<path d="M36259 3974
L37145 3974
" />
<path d="M37145 3974
L37637 3482
" />
<path d="M36259 2990
L37145 2990
" />
<path d="M37145 2990
L37637 3482
" />
<path d="M36259 2990
L36259 3974
" />
<path d="M27204 2537
L30354 2537
" />
<path d="M34685 2990
L34685 3974
" />
<path d="M34685 3974
L33799 3974
" />
<path d="M33799 3974
L33307 3482
" />
<path d="M34685 2990
L33799 2990
" />
<path d="M33799 2990
L33307 3482
" />
<path d="M30354 4427
L32362 4427
" />
<path d="M32362 4427
L33307 3482
" />
<path d="M27204 4427
L30354 4427
" />
</g>
<g style="fill:#000000; fill-opacity:1.0; 
stroke:#000000; stroke-width:100; stroke-opacity:1; 
stroke-linecap:round; stroke-linejoin:round;">
<polyline style="fill-rule:evenodd;"
points="5955,3682
5944,3697
5893,3620
5955,3682
" /> 
<polyline style="fill-rule:evenodd;"
points="6450,1803
5761,2491
5617,2395
5370,2346
4944,2346
4697,2395
4488,2534
4403,2662
4283,2686
4176,2757
4166,2768
4025,2674
3779,2625
3533,2674
3324,2813
3184,3022
3135,3268
3135,3695
3184,3941
3324,4150
3451,4235
3475,4356
3547,4462
4245,5161
328,5161
328,4073
329,4076
624,4371
630,4374
632,4376
821,4453
1010,4532
1015,4532
1019,4533
1223,4532
1428,4532
1432,4530
1437,4530
1808,4376
1809,4374
1814,4372
2110,4077
2112,4071
2115,4070
2191,3880
2270,3692
2270,3687
2272,3683
2270,3478
2270,3274
2268,3270
2268,3265
2115,2894
2113,2892
2111,2888
1816,2592
1810,2590
1808,2587
1619,2510
1430,2432
1425,2432
1421,2430
1216,2432
1012,2432
1008,2433
1003,2433
632,2587
631,2589
626,2591
330,2886
328,2891
328,1803
6450,1803
" /> 
<polyline style="fill-rule:evenodd;"
points="9547,3921
8709,3921
8730,3811
9547,3811
9547,3921
" /> 
<polyline style="fill-rule:evenodd;"
points="9994,2641
9748,2641
9656,2679
9585,2750
9547,2842
9547,2941
9547,3153
8730,3153
8704,3022
8565,2813
8356,2674
8110,2625
7863,2674
7723,2768
7712,2757
7606,2686
7485,2662
7400,2534
7191,2395
6945,2346
6836,2346
6907,2275
9994,2275
9994,2641
" /> 
<polyline style="fill-rule:evenodd;"
points="12629,2275
12262,2641
11748,2641
11656,2679
11637,2698
11619,2679
11527,2641
11467,2641
11467,2275
12629,2275
" /> 
<polyline style="fill-rule:evenodd;"
points="13617,4285
13430,4472
12863,4472
13012,4322
13527,4322
13617,4285
" /> 
<polyline style="fill-rule:evenodd;"
points="15506,5161
14174,5161
15012,4322
15506,4322
15506,5161
" /> 
<polyline style="fill-rule:evenodd;"
points="16347,3153
15727,3153
15727,3043
16347,3043
16347,3153
" /> 
<polyline style="fill-rule:evenodd;"
points="16347,3822
15727,3822
15727,3811
16347,3811
16347,3822
" /> 
<polyline style="fill-rule:evenodd;"
points="18882,2641
18811,2641
18701,2531
18771,2531
18882,2641
" /> 
<polyline style="fill-rule:evenodd;"
points="19882,2641
19811,2641
19445,2275
19515,2275
19882,2641
" /> 
<polyline style="fill-rule:evenodd;"
points="20624,5161
16855,5161
16855,4322
17326,4322
17418,4284
17437,4266
17455,4284
17547,4322
17646,4322
18326,4322
18418,4284
18437,4266
18455,4284
18547,4322
18646,4322
19326,4322
19418,4284
19437,4266
19455,4284
19547,4322
19646,4322
20326,4322
20418,4284
20437,4266
20455,4284
20547,4322
20624,4322
20624,5161
" /> 
<polyline style="fill-rule:evenodd;"
points="24561,5161
21973,5161
21973,3822
21527,3822
21527,2842
21488,2750
21418,2679
21326,2641
21227,2641
20811,2641
19973,1803
24561,1803
24561,2907
24555,2894
24554,2892
24552,2888
24256,2592
24251,2590
24249,2587
24060,2510
23871,2432
23866,2432
23862,2430
23657,2432
23453,2432
23449,2433
23444,2433
23073,2587
23072,2589
23067,2591
22771,2886
22769,2892
22766,2894
22690,3083
22611,3272
22611,3277
22609,3281
22611,3485
22611,3690
22612,3694
22613,3698
22766,4070
22768,4071
22770,4076
23065,4371
23071,4374
23073,4376
23262,4453
23451,4532
23456,4532
23460,4533
23664,4532
23869,4532
23873,4530
23878,4530
24249,4376
24250,4374
24255,4372
24551,4077
24553,4071
24555,4070
24561,4056
24561,5161
" /> 
<polyline style="fill-rule:evenodd;"
points="25827,3482
25811,3498
25773,3590
25773,3689
25773,3822
24656,3822
24711,3692
24711,3687
24712,3683
24711,3478
24711,3274
24709,3270
24709,3265
24609,3023
25773,3023
25773,3374
25811,3466
25827,3482
" /> 
<polyline style="fill-rule:evenodd;"
points="28977,3482
28961,3498
28924,3586
28634,3586
28597,3498
28581,3482
28597,3466
28634,3377
28924,3377
28961,3466
28977,3482
" /> 
<polyline style="fill-rule:evenodd;"
points="32222,3377
32014,3586
31784,3586
31747,3498
31731,3482
31747,3466
31784,3377
32222,3377
" /> 
<polyline style="fill-rule:evenodd;"
points="41088,5161
32747,5161
32956,5021
33327,4650
33477,4750
33799,4814
34685,4814
35006,4750
35279,4568
35461,4296
35469,4255
35472,4251
35475,4255
35483,4296
35665,4568
35938,4750
36259,4814
37145,4814
37467,4750
37740,4568
38232,4076
38414,3803
38478,3482
38414,3160
38232,2887
37740,2395
37467,2213
37145,2149
36865,2149
36854,2133
36524,1803
41088,1803
41088,2890
41087,2888
40792,2592
40786,2590
40784,2587
40595,2510
40406,2432
40402,2432
40397,2430
40193,2432
39988,2432
39984,2433
39980,2433
39608,2587
39607,2589
39602,2591
39307,2886
39304,2892
39302,2894
39225,3083
39147,3272
39147,3277
39145,3281
39146,3485
39146,3690
39148,3694
39148,3698
39302,4070
39304,4071
39306,4076
39601,4371
39607,4374
39608,4376
39798,4453
39987,4532
39991,4532
39995,4533
40200,4532
40404,4532
40408,4530
40413,4530
40784,4376
40786,4374
40790,4372
41086,4077
41088,4072
41088,5161
" /> 
</g>
<g style="fill:#FFFFFF; fill-opacity:1.0; 
stroke:#FFFFFF; stroke-width:78.7402; stroke-opacity:1; 
stroke-linecap:round; stroke-linejoin:round;">
<circle cx="3779.53" cy="3482.28" r="157.48" /> 
<circle cx="5157.48" cy="2990.16" r="157.48" /> 
<circle cx="5157.48" cy="3974.41" r="157.48" /> 
<circle cx="6732.28" cy="2990.16" r="157.48" /> 
<circle cx="6732.28" cy="3974.41" r="157.48" /> 
<circle cx="8110.24" cy="3482.28" r="157.48" /> 
<circle cx="37637.8" cy="3482.28" r="157.48" /> 
<circle cx="36259.8" cy="3974.41" r="157.48" /> 
<circle cx="36259.8" cy="2990.16" r="157.48" /> 
<circle cx="34685" cy="3974.41" r="157.48" /> 
<circle cx="34685" cy="2990.16" r="157.48" /> 
<circle cx="33307.1" cy="3482.28" r="157.48" /> 
<circle cx="1220.47" cy="3482.28" r="560.63" /> 
<circle cx="40196.9" cy="3482.28" r="560.63" /> 
<circle cx="23661.4" cy="3482.28" r="560.63" /> 
</g>
<g style="fill:#000000; fill-opacity:1.0; 
stroke:#000000; stroke-width:78.7402; stroke-opacity:1; 
stroke-linecap:round; stroke-linejoin:round;">
</g>
<g style="fill:#000000; fill-opacity:0.0; 
stroke:#000000; stroke-width:78.7402; stroke-opacity:1; 
stroke-linecap:round; stroke-linejoin:round;">
<path d="M32322 1513
L39 1513
" />
<path d="M41377 1513
L36259 1513
" />
<path d="M39 1513
L39 5450
" />
<path d="M41377 5450
L41377 1513
" />
<path d="M39 5450
L41377 5450
" />
</g> 
</svg>
